<?xml version="1.0" encoding="UTF-8" standalone="no"?><!-- Generator: Gravit.io --><svg xmlns="http://www.w3.org/2000/svg" xmlns:xlink="http://www.w3.org/1999/xlink" style="isolation:isolate" viewBox="0 0 120 120" width="120pt" height="120pt"><defs><clipPath id="_clipPath_N6V40j313xHyOsHEQ3ZdMEt0vnbVmhBp"><rect width="120" height="120"/></clipPath></defs><g clip-path="url(#_clipPath_N6V40j313xHyOsHEQ3ZdMEt0vnbVmhBp)"><rect width="120" height="120" style="fill:rgb(0,0,0)" fill-opacity="0"/><path d=" M 60 1.5 C 26.878 1.5 0.019 28.353 0.019 61.481 C 0.019 87.981 17.205 110.465 41.038 118.396 C 44.035 118.951 45.136 117.095 45.136 115.511 C 45.136 114.081 45.08 109.356 45.054 104.344 C 28.368 107.972 24.846 97.267 24.846 97.267 C 22.118 90.335 18.187 88.49 18.187 88.49 C 12.744 84.767 18.597 84.844 18.597 84.844 C 24.62 85.267 27.791 91.026 27.791 91.026 C 33.141 100.195 41.823 97.544 45.246 96.011 C 45.785 92.135 47.339 89.488 49.054 87.99 C 35.732 86.475 21.727 81.331 21.727 58.347 C 21.727 51.8 24.07 46.448 27.907 42.248 C 27.284 40.737 25.231 34.636 28.489 26.374 C 28.489 26.374 33.526 24.763 44.987 32.524 C 49.771 31.195 54.903 30.528 60 30.504 C 65.097 30.528 70.233 31.195 75.026 32.524 C 86.474 24.763 91.504 26.374 91.504 26.374 C 94.769 34.636 92.716 40.737 92.093 42.248 C 95.939 46.448 98.265 51.8 98.265 58.347 C 98.265 81.386 84.234 86.458 70.877 87.943 C 73.029 89.804 74.946 93.454 74.946 99.05 C 74.946 107.076 74.877 113.535 74.877 115.511 C 74.877 117.108 75.956 118.977 78.996 118.389 C 102.817 110.449 119.981 87.974 119.981 61.481 C 119.981 28.353 93.126 1.5 60 1.5 Z " fill-rule="evenodd" fill="rgb(255,255,255)"/></g></svg>