<svg xmlns="http://www.w3.org/2000/svg" viewBox="0 0 704 285" width="704" height="285" isolation="isolate"><style>.a{fill:white;}.b{fill:black;}.c{fill:rgb(255,255,255);stroke-width:2;stroke:rgb(255,255,255);}.d{fill:rgb(255,255,255);}</style><defs><clipPath><rect width="704" height="285"/></clipPath></defs><g clip-path="url(#_clipPath_lObgHvWTPYZppRYThUjoZyKw7t1mKx7y)"><mask x="-200" y="-200" width="400" height="400"><rect x="-200" y="-200" width="400" height="400" class="a"/><path d="M330.5 218.6C330.5 218.6 330.5 218.6 330.5 218.6 328.9 218.6 327.5 219.2 326.2 220.2 325.2 221 324.5 222.1 324 223.3 324 223.3 324 223.3 324 223.3 324.6 222.1 325.3 221 326.2 220.2 327.6 219.2 329 218.7 330.5 218.6Z" class="b"/></mask><path d="M330.5 218.6C330.5 218.6 330.5 218.6 330.5 218.6 328.9 218.6 327.5 219.2 326.2 220.2 325.2 221 324.5 222.1 324 223.3 324 223.3 324 223.3 324 223.3 324.6 222.1 325.3 221 326.2 220.2 327.6 219.2 329 218.7 330.5 218.6Z" mask="url(#_mask_A90fZ9lSvDR1FtIl9o2NgtGFlOskDFhA)" vector-effect="non-scaling-stroke" class="c"/><path d="M330.5 218.6C330.5 218.6 330.5 218.6 330.5 218.6 328.9 218.6 327.5 219.2 326.2 220.2 325.2 221 324.5 222.1 324 223.3 324 223.3 324 223.3 324 223.3 324.6 222.1 325.3 221 326.2 220.2 327.6 219.2 329 218.7 330.5 218.6Z" class="d"/><path d="M64 13.2C64 13.2 4.7 272 4.7 272 4.7 272 4.7 272 4.8 272 4.8 272 279.2 272 279.2 272 279.2 272 421.9 272 421.9 272 404.9 270.5 391.4 264.5 383.4 253.6 382 251.6 380.7 249.5 379.7 247.2 379 245.5 378.3 243.8 377.7 242.1 376 236.7 375.3 230.7 375.6 224.3 376.5 206.4 384.8 185.1 399.4 162.9 414.8 139.2 437.2 114.4 464.9 91.4 471.1 86.3 477.5 81.2 484.2 76.2 492.5 70.1 500.9 64.5 509.2 59.2 540.1 39.8 570.9 26.2 598.1 19.3 572.1 27.8 542.8 42.3 513.9 61.9 512.8 62.6 511.8 63.3 510.8 64 494.7 75.2 480.2 87 467.5 98.9 426.7 137.3 405.1 177 414.9 200.3 415.6 202 416.5 203.5 417.4 204.9 428 220.4 454.1 223.1 487.2 214.8 489.4 214.2 491.7 213.6 494 212.9 504.6 209.9 515.8 205.7 527.4 200.7 530.1 199.4 533 198.2 535.8 196.8 536.1 196.7 536.3 196.6 536.6 196.4 573.1 178.3 601.2 157.4 607.2 144.9 608.6 142.1 608.9 139.8 608 138 603.7 129.2 573.4 135.2 536.6 151.1 533.7 152.3 530.7 153.7 527.7 155.1 530.1 152.8 532.7 150.5 535.3 148.2 539.5 144.6 543.8 141.1 548.4 137.7 555.5 132.2 562.8 127.3 569.9 123 603.4 97.7 620.3 73.9 616.8 65 616.1 63.3 614.7 62.2 612.5 61.5 605.5 59.3 592.8 61.9 577.4 68.2 564.6 73.5 549.9 81.2 535.1 90.9 535.1 90.9 533.1 92.2 533.1 92.2 533.1 92.2 532.7 92.4 532.7 92.4 532.7 92.4 525.6 97.2 525.6 97.2 525.6 97.2 529.7 89.7 529.7 89.7 535.7 78.5 545.7 66.9 558 56.1 567.1 48.2 577.4 40.8 588.5 34.2 592.8 31.8 597 29.5 601.2 27.4 605.5 25.3 609.8 23.4 614 21.8 626.3 16.9 637.9 14 648.1 13.2 647.2 13.2 619.5 13.2 619.5 13.2 619.5 13.2 523.1 13.2 523.1 13.2 523.1 13.2 97.8 13.2 97.8 13.2 97.8 13.2 64 13.2 64 13.2ZM370 13.6C368.3 39.1 373.3 76.4 384.5 117.9 386.5 125.3 388.7 132.8 391.1 140.4 392.5 145.1 394.1 149.7 395.6 154.3 394.7 155.6 393.8 157 392.9 158.3 378.9 179.8 370.7 200 368.7 217.7 362.8 197.9 358.3 176.1 355.8 153.1 355.1 146.5 354.5 140 354.1 133.6 351.4 86.8 357.5 44.4 370 13.6ZM90.6 46.8C90.9 46.8 91.3 46.8 91.6 46.8 91.6 46.8 154.6 46.8 154.6 46.8 160 46.8 164.2 47.8 167.1 49.8 170.1 51.8 171.2 54.5 170.5 57.7 170.5 57.7 163 91.6 163 91.6 163 91.6 140.8 91.6 140.8 91.6 140.8 91.6 148.1 58.6 148.1 58.6 148.1 58.6 92.4 58.6 92.4 58.6 92.4 58.6 72.3 149.4 72.3 149.4 72.3 149.4 65.1 182.3 65.1 182.3 65.1 182.3 120.7 182.3 120.7 182.3 120.7 182.3 120.7 182.1 120.7 182.1 120.7 182.1 131.9 131.8 131.9 131.8 131.9 131.8 105.8 131.8 105.8 131.8 105.8 131.8 108.3 120.4 108.3 120.4 108.3 120.4 156.6 120.4 156.6 120.4 156.6 120.4 142.7 183.2 142.7 183.2 142.5 184.1 142.2 184.9 141.8 185.7 140.6 187.8 138.6 189.6 135.9 191 132 193.1 127.4 194.1 122 194.1 122 194.1 59 194.1 59 194.1 53.6 194.1 49.5 193.1 46.5 191 43.5 189 42.4 186.4 43.1 183.2 43.1 183.2 70.9 57.7 70.9 57.7 71.6 54.5 73.9 51.8 77.7 49.8 77.9 49.7 78 49.7 78.1 49.6 81.7 47.9 85.8 46.9 90.6 46.8ZM189.4 46.8C189.4 46.8 268.8 46.8 268.8 46.8 274.1 46.8 278.3 47.8 281.2 49.8 284.2 51.8 285.4 54.5 284.6 57.7 284.6 57.7 269.8 124.6 269.8 124.6 269.1 127.8 266.8 130.4 263 132.5 259.1 134.5 254.5 135.5 249.1 135.5 249.1 135.5 191.5 135.5 191.5 135.5 191.5 135.5 180.4 185.8 180.4 185.8 180.4 185.8 178.5 194.1 178.5 194.1 178.5 194.1 156.8 194.1 156.8 194.1 156.8 194.1 158.5 186.6 158.5 186.6 158.5 186.6 189.4 46.8 189.4 46.8ZM299 46.8C299 46.8 320.8 46.8 320.8 46.8 320.8 46.8 296.1 158 296.1 158 296.1 158 290.8 182.3 290.8 182.3 290.8 182.3 342.8 182.3 342.8 182.3 343.3 186.3 344 190.2 344.6 194.1 344.6 194.1 266.4 194.1 266.4 194.1 266.4 194.1 272.6 166.1 272.6 166.1 272.6 166.1 299 46.8 299 46.8ZM208.5 58.6C208.5 58.6 194.1 123.7 194.1 123.7 194.1 123.7 248.3 123.7 248.3 123.7 248.3 123.7 262.7 58.6 262.7 58.6 262.7 58.6 208.5 58.6 208.5 58.6ZM163 204.3C163.2 204.3 163.4 204.3 163.6 204.3 166.1 204.3 168.3 204.7 170.1 205.6 172 206.5 173.4 207.8 174.1 209.5 174.9 211.2 175 213.1 174.7 215.2 174.7 215.2 174.5 216 174.5 216 174.5 216 168.3 216 168.3 216 168.3 216 168.3 215.3 168.3 215.3 168.5 213.8 168.3 212.7 167.7 211.9 167.7 211.8 167.5 211.6 167.5 211.5 167.3 211.4 167.1 211.2 166.9 211.1 166.1 210.6 164.7 210.3 162.9 210.3 160.6 210.3 158.8 210.7 157.7 211.5 156.5 212.3 155.8 213.2 155.5 214.3 155.3 215.3 155.7 215.9 155.9 216.2 156 216.2 156 216.3 156 216.3 156.3 216.6 157.5 217.3 161.3 218.1 164.7 219 166.9 219.7 168.2 220.3 170.1 221.3 171.4 222.6 172.1 224.1 172.8 225.6 172.9 227.4 172.5 229.4 172.1 231.3 171.1 233 169.7 234.7 168.3 236.3 166.5 237.6 164.3 238.5 162.2 239.4 159.8 239.9 157.4 239.9 154.3 239.9 151.9 239.4 149.9 238.5 147.9 237.5 146.5 236 145.6 234.1 144.8 232.2 144.6 230 145.1 227.6 145.1 227.6 145.2 226.9 145.2 226.9 145.2 226.9 151.4 226.9 151.4 226.9 151.4 226.9 151.3 227.6 151.3 227.6 151.2 229 151.3 230.2 151.7 231 152 231.9 152.7 232.5 153.8 233.1 155 233.6 156.4 233.9 158.1 233.9 159.6 233.9 160.9 233.7 162.1 233.2 163.3 232.8 164.3 232.2 165 231.5 165.6 230.8 166 230 166.2 229.2 166.4 228.5 166.3 227.9 166 227.4 165.7 226.8 165.1 226.3 164 225.9 164 225.9 158.8 224.4 158.8 224.4 155.9 223.6 153.9 222.9 152.8 222.2 151.3 221.3 150.1 220.1 149.6 218.7 149 217.3 148.9 215.8 149.3 214.1 149.7 212.3 150.6 210.6 151.9 209 153.3 207.5 155 206.3 157.1 205.5 159 204.8 160.9 204.4 163 204.3ZM218.9 204.4C219.3 204.4 219.6 204.4 219.9 204.4 219.9 204.4 223.8 204.8 223.8 204.8 223.8 204.8 225.1 204.9 225.1 204.9 225.1 204.9 223.2 209.7 223.2 209.7 223.2 209.7 222.8 210.4 222.8 210.4 222.8 210.4 219.9 210.2 219.9 210.2 219 210.2 218.4 210.3 218 210.6 217.9 210.6 217.9 210.7 217.9 210.7 217.8 210.7 217.7 210.8 217.7 210.9 217.4 211.2 217.1 211.8 216.9 212.9 216.9 212.9 216.7 213.4 216.6 213.8 218 213.8 221.2 213.8 221.2 213.8 221.2 213.8 220.1 219.1 220.1 219.1 220.1 219.1 216.7 219.1 215.6 219.1 215.2 220.6 211 239.4 211 239.4 211 239.4 204.9 239.4 204.9 239.4 204.9 239.4 208.9 221.3 209.4 219.1 208.4 219.1 205.8 219.1 205.8 219.1 205.8 219.1 207 213.8 207 213.8 207 213.8 209.5 213.8 210.5 213.8 210.7 213 210.9 212.1 210.9 212.1 211.3 210.4 211.7 209.2 212.2 208.3 212.9 207.2 213.9 206.2 215.2 205.5 216.2 204.9 217.5 204.5 218.9 204.4ZM233.7 204.7C233.7 204.7 232.1 211.9 231.7 213.8 232.9 213.8 235.7 213.8 235.7 213.8 235.7 213.8 234.5 219.1 234.5 219.1 234.5 219.1 231.6 219.1 230.5 219.1 230.2 220.5 227.6 231.9 227.6 231.9 227.6 231.9 227.4 233.3 227.4 233.7 227.4 233.7 227.4 233.7 227.4 233.7 227.4 233.7 227.4 233.8 227.4 233.8 227.4 233.8 227.5 233.8 227.5 233.8 227.5 233.8 228.1 233.8 228.1 233.8 228.1 233.8 231 233.6 231 233.6 231 233.6 230.7 238.3 230.7 238.3 230.7 238.3 230.8 239.2 230.8 239.2 230.8 239.2 226.6 239.7 226.6 239.7 224.9 239.7 223.7 239.4 222.8 238.8 221.8 238.2 221.3 237.4 221.1 236.4 221 236.2 221 235.9 221 235.5 221 234.8 221.1 233.5 221.6 231.2 221.6 231.2 223.8 221.2 224.3 219.1 223.5 219.1 221.4 219.1 221.4 219.1 221.4 219.1 222.6 213.8 222.6 213.8 222.6 213.8 224.6 213.8 225.5 213.8 225.8 212.5 226.7 208.3 226.7 208.3 226.7 208.3 231.7 205.7 231.7 205.7 231.7 205.7 233.7 204.7 233.7 204.7ZM37.3 204.9C37.3 204.9 61.3 204.9 61.3 204.9 61.3 204.9 60 210.8 60 210.8 60 210.8 44 210.8 42.4 210.8 42.2 212.1 41.1 217 40.7 218.7 42.9 218.7 55.9 218.7 55.9 218.7 55.9 218.7 54.5 224.7 54.5 224.7 54.5 224.7 40.9 224.7 39.4 224.7 39 226.2 36.1 239.4 36.1 239.4 36.1 239.4 29.7 239.4 29.7 239.4 29.7 239.4 37.3 204.9 37.3 204.9ZM69.5 213.3C69.7 213.3 70 213.3 70.2 213.3 71.7 213.3 73.2 213.8 74.5 214.7 74.5 214.7 75.4 215.3 75.4 215.3 75.4 215.3 72.1 220.8 72.1 220.8 72.1 220.8 71.2 220.1 71.2 220.1 70.5 219.7 69.8 219.5 69 219.5 68.4 219.5 67.8 219.7 67.2 220.1 66.5 220.5 66 221.1 65.6 221.9 64.9 223.2 64.3 224.7 64 226.2 64 226.2 61.1 239.4 61.1 239.4 61.1 239.4 54.9 239.4 54.9 239.4 54.9 239.4 60.6 213.8 60.6 213.8 60.6 213.8 66.4 213.8 66.4 213.8 66.4 213.8 66.2 214.6 66.1 214.8 66.4 214.6 66.7 214.4 66.9 214.2 67.7 213.7 68.6 213.4 69.5 213.3ZM87.8 213.3C88.2 213.3 88.5 213.3 88.9 213.3 92.4 213.3 95 214.5 96.7 216.9 97.8 218.5 98.4 220.4 98.4 222.7 98.4 223.9 98.2 225.3 97.9 226.8 97.9 226.8 97.4 228.6 97.4 228.6 97.4 228.6 81.8 228.6 80.1 228.6 80 229 80 229.4 80 229.7 80 231 80.3 232.1 80.9 232.9 81.1 233.2 81.5 233.6 81.8 233.8 82.5 234.3 83.4 234.5 84.4 234.5 85.7 234.5 86.8 234.2 87.8 233.5 88.8 232.9 89.8 231.9 90.6 230.5 90.6 230.5 97.2 230.5 97.2 230.5 97.2 230.5 96.6 231.7 96.6 231.7 95.4 234.3 93.6 236.3 91.4 237.7 89.2 239.1 86.6 239.9 83.7 239.9 79.9 239.9 77.1 238.7 75.4 236.3 73.7 233.9 73.3 230.7 74.2 226.6 75.1 222.4 77 219.1 79.6 216.8 82 214.7 84.8 213.5 87.8 213.3ZM115.6 213.3C115.9 213.3 116.3 213.3 116.7 213.3 120.2 213.3 122.8 214.5 124.5 216.9 125.6 218.5 126.2 220.4 126.2 222.7 126.2 223.9 126 225.3 125.7 226.7 125.7 226.7 125.2 228.6 125.2 228.6 125.2 228.6 109.6 228.6 107.8 228.6 107.8 228.9 107.8 229.1 107.8 229.3 107.8 229.4 107.8 229.6 107.8 229.7 107.8 229.7 107.8 229.7 107.8 229.7 107.8 230 107.8 230.2 107.8 230.5 107.9 231.4 108.2 232.2 108.6 232.9 108.7 233 108.8 233.1 108.9 233.2 109.7 234.1 110.8 234.5 112.2 234.5 113.5 234.5 114.6 234.2 115.6 233.5 116.6 232.9 117.5 231.9 118.4 230.5 118.4 230.5 125 230.5 125 230.5 125 230.5 124.4 231.7 124.4 231.7 123.1 234.3 121.4 236.3 119.2 237.7 117 239.1 114.4 239.9 111.5 239.9 107.7 239.9 104.9 238.7 103.1 236.3 102 234.7 101.5 232.8 101.5 230.5 101.5 230.1 101.5 229.7 101.5 229.3 101.6 228.4 101.7 227.6 102 226.6 102.9 222.4 104.7 219.1 107.3 216.8 109.7 214.7 112.5 213.5 115.6 213.3ZM191.2 213.3C191.6 213.3 191.9 213.3 192.3 213.3 195.8 213.3 198.6 214.5 200.3 216.9 202.1 219.2 202.5 222.4 201.6 226.5 200.9 229.6 199.9 232.1 198.5 234 197.1 235.8 195.4 237.3 193.3 238.3 191.2 239.4 189.1 239.9 186.9 239.9 183.2 239.9 180.5 238.7 178.8 236.3 177.7 234.7 177.1 232.8 177.1 230.5 177.1 229.2 177.2 227.9 177.6 226.4 178.6 221.8 180.7 218.3 183.8 216.1 186 214.4 188.5 213.5 191.2 213.3ZM284.8 213.3C285.2 213.3 285.7 213.3 286.1 213.3 288.3 213.3 290 213.5 291.2 214 292.6 214.6 293.6 215.4 294.1 216.3 294.7 217.2 294.9 218.2 294.9 219.5 294.9 219.5 294.3 223.4 294.3 223.4 294.3 223.4 293.1 228.7 293.1 228.7 292.1 233.2 291.9 234.9 291.8 235.5 291.8 236.4 291.9 237.2 292.1 238 292.1 238 292.5 239.4 292.5 239.4 292.5 239.4 286.2 239.4 286.2 239.4 286.2 239.4 286 238.6 286 238.6 285.9 238.2 285.9 237.7 285.9 237.3 284.7 238 283.5 238.7 282.4 239 280.8 239.6 279.2 239.9 277.5 239.9 274.6 239.9 272.5 239.1 271.2 237.6 270.2 236.6 269.7 235.2 269.7 233.7 269.7 233.1 269.8 232.5 269.9 231.9 270.2 230.6 270.7 229.4 271.6 228.3 272.4 227.3 273.4 226.4 274.5 225.8 275.5 225.1 276.7 224.7 277.9 224.4 277.9 224.4 281.7 223.7 281.7 223.7 284.6 223.4 286.8 223 288.4 222.5 288.4 222.3 288.5 222.1 288.5 222.1 288.7 221 288.7 220.2 288.4 219.8 288.4 219.8 288.3 219.7 288.3 219.7 288.3 219.6 288.2 219.5 288.1 219.5 287.5 219 286.4 218.7 284.9 218.7 283.3 218.7 282 219 281.2 219.5 280.3 220.1 279.6 221 278.9 222.4 278.9 222.4 272.4 222.4 272.4 222.4 272.4 222.4 273 221.1 273 221.1 273.8 219.4 274.7 217.9 275.8 216.8 277 215.6 278.5 214.8 280.3 214.1 281.7 213.7 283.2 213.4 284.8 213.3ZM311.8 213.3C312.1 213.3 312.3 213.3 312.6 213.3 314.1 213.3 315.6 213.8 316.9 214.7 316.9 214.7 317.7 215.3 317.7 215.3 317.7 215.3 314.4 220.8 314.4 220.8 314.4 220.8 313.5 220.1 313.5 220.1 312.9 219.7 312.2 219.5 311.4 219.5 310.8 219.5 310.2 219.7 309.5 220.1 308.9 220.5 308.4 221.1 308 221.9 307.3 223.2 306.7 224.7 306.4 226.2 306.4 226.2 303.4 239.4 303.4 239.4 303.4 239.4 297.3 239.4 297.3 239.4 297.3 239.4 303 213.8 303 213.8 303 213.8 308.7 213.8 308.7 213.8 308.7 213.8 308.6 214.6 308.5 214.8 308.8 214.6 309.1 214.4 309.3 214.2 310.1 213.7 311 213.4 311.8 213.3ZM330.1 213.3C330.5 213.3 330.8 213.3 331.2 213.3 334.7 213.3 337.3 214.5 339 216.9 340.1 218.5 340.7 220.4 340.7 222.7 340.7 223.9 340.5 225.3 340.2 226.8 340.2 226.8 339.7 228.6 339.7 228.6 339.7 228.6 324.1 228.6 322.4 228.6 322.3 229 322.3 229.4 322.3 229.7 322.3 231 322.6 232.1 323.1 232.9 323.2 233 323.3 233.1 323.4 233.2 323.5 233.3 323.6 233.4 323.6 233.4 324.4 234.1 325.4 234.5 326.7 234.5 328 234.5 329.1 234.2 330.1 233.5 331.1 232.9 332.1 231.9 332.9 230.5 332.9 230.5 339.6 230.5 339.6 230.5 339.6 230.5 338.9 231.7 338.9 231.7 337.7 234.3 335.9 236.3 333.7 237.7 331.5 239.1 328.9 239.9 326 239.9 322.2 239.9 319.5 238.7 317.7 236.3 316 233.9 315.6 230.7 316.5 226.6 317.4 222.4 319.2 219.1 321.9 216.8 324.3 214.7 327.1 213.5 330.1 213.3ZM236.8 213.8C236.8 213.8 243.1 213.8 243.1 213.8 243.1 213.8 243.9 229 243.9 229.2 244.2 228.6 244.4 228.2 244.4 228.1 244.4 228.1 251.4 213.8 251.4 213.8 251.4 213.8 257.2 213.8 257.2 213.8 257.2 213.8 257.7 228.8 257.7 228.9 257.9 228.5 265.7 213.8 265.7 213.8 265.7 213.8 272 213.8 272 213.8 272 213.8 258.1 239.4 258.1 239.4 258.1 239.4 252.4 239.4 252.4 239.4 252.4 239.4 251.8 225.5 251.8 224.7 249.5 229.5 244.7 239.4 244.7 239.4 244.7 239.4 238.8 239.4 238.8 239.4 238.8 239.4 236.8 213.8 236.8 213.8ZM87.9 218.6C86.4 218.7 85.1 219.2 83.8 220.2 82.9 221 82.2 222.1 81.7 223.3 81.7 223.3 92.2 223.3 92.2 223.3 92.2 223.1 92.2 222.8 92.2 222.7 92.2 221.7 92 220.9 91.7 220.4 91 219.2 89.9 218.6 88.2 218.6 88.1 218.6 88 218.6 87.9 218.6ZM115.7 218.6C114.2 218.7 112.9 219.2 111.6 220.2 110.6 221 110 222.1 109.4 223.3 109.4 223.3 119.9 223.3 119.9 223.3 119.9 223.1 120 222.8 120 222.7 120 221.7 119.8 220.9 119.5 220.4 119.4 220.2 119.1 219.9 119 219.7 118.3 219 117.3 218.6 116 218.6 115.9 218.6 115.8 218.6 115.7 218.6ZM330.4 218.6C328.9 218.7 327.5 219.2 326.2 220.2 325.2 221 324.6 222.1 324 223.3 324 223.3 334.5 223.3 334.5 223.3 334.5 223.1 334.5 222.8 334.5 222.7 334.5 221.7 334.4 220.9 334 220.4 333.3 219.2 332.2 218.6 330.5 218.6 330.5 218.6 330.5 218.6 330.4 218.6ZM190.8 218.7C189.4 218.9 188.1 219.5 186.9 220.7 185.4 222 184.3 224.1 183.7 226.8 183.5 228 183.3 229 183.3 229.9 183.3 231.1 183.6 232 184 232.7 184.2 232.9 184.3 233.1 184.5 233.3 185.2 234.1 186.3 234.5 187.6 234.5 189.3 234.5 190.8 233.9 192.3 232.5 193.8 231.2 194.8 229.1 195.4 226.2 196 223.7 195.9 221.7 195.1 220.5 194.3 219.3 193.2 218.7 191.6 218.7 191.3 218.7 191.1 218.7 190.8 218.7ZM287.1 228.1C285.6 228.4 284 228.8 281.9 229.1 280.3 229.3 279.1 229.6 278.5 229.8 277.9 230.1 277.4 230.4 277 230.8 276.6 231.3 276.4 231.7 276.3 232.2 276.2 232.4 276.2 232.6 276.2 232.8 276.2 232.8 276.2 232.8 276.2 232.9 276.2 232.9 276.2 233 276.2 233 276.2 233.1 276.3 233.2 276.3 233.3 276.3 233.3 276.3 233.4 276.3 233.4 276.3 233.4 276.4 233.5 276.4 233.5 276.4 233.6 276.5 233.7 276.5 233.7 276.5 233.8 276.6 233.9 276.6 233.9 277.1 234.4 277.9 234.6 279.2 234.6 280.5 234.6 281.8 234.4 283 233.8 284.2 233.2 285.1 232.3 285.8 231.3 286.3 230.6 286.7 229.5 287.1 228.1Z" vector-effect="non-scaling-stroke" style="fill:rgb(255,255,255);stroke:rgb(255,255,255)"/><mask x="-200" y="-200" width="400" height="400"><rect x="-200" y="-200" width="400" height="400" class="a"/><path d="M330.6 218.6C330.6 218.6 330.6 218.6 330.5 218.6 332.2 218.7 333.3 219.2 334 220.4 334.3 220.9 334.5 221.7 334.5 222.7 334.5 222.9 334.5 223.1 334.5 223.3 334.5 223.3 334.5 223.3 334.5 223.3 334.5 223.1 334.6 222.9 334.6 222.7 334.6 221.7 334.4 220.9 334.1 220.4 333.4 219.2 332.2 218.6 330.6 218.6Z" class="b"/></mask><path d="M330.6 218.6C330.6 218.6 330.6 218.6 330.5 218.6 332.2 218.7 333.3 219.2 334 220.4 334.3 220.9 334.5 221.7 334.5 222.7 334.5 222.9 334.5 223.1 334.5 223.3 334.5 223.3 334.5 223.3 334.5 223.3 334.5 223.1 334.6 222.9 334.6 222.7 334.6 221.7 334.4 220.9 334.1 220.4 333.4 219.2 332.2 218.6 330.6 218.6Z" mask="url(#_mask_1YT4cOwoyJnHyWgNW0fnimIX59VtHXnq)" vector-effect="non-scaling-stroke" class="c"/><path d="M330.6 218.6C330.6 218.6 330.6 218.6 330.5 218.6 332.2 218.7 333.3 219.2 334 220.4 334.3 220.9 334.5 221.7 334.5 222.7 334.5 222.9 334.5 223.1 334.5 223.3 334.5 223.3 334.5 223.3 334.5 223.3 334.5 223.1 334.6 222.9 334.6 222.7 334.6 221.7 334.4 220.9 334.1 220.4 333.4 219.2 332.2 218.6 330.6 218.6Z" class="d"/><mask x="-200" y="-200" width="400" height="400"><rect x="-200" y="-200" width="400" height="400" class="a"/><path d="M376.2 242.1C376.9 243.9 379.4 248.7 380.1 250.4 381.2 252.8 385 255.1 386.6 257.2 394.9 268.5 404.1 270.4 421.9 272 421.9 272 439.2 272 439.2 272 447.4 271.5 463 268.9 469.6 267.6 480.9 265.4 483.1 266.1 495.6 261.6 505 258.2 512.9 256 522.7 251.3 544.1 241 566.2 227.8 587.8 211.8 595 206.6 601.8 201.2 608.4 195.7 614.4 190.7 620.2 185.6 625.7 180.5 641.2 165.6 652.8 150.5 659.4 137.3 666.3 123.5 667.6 111.7 662 104.2 658.6 99.7 652.8 97.2 645.4 96.7 678.8 71.6 696.6 43.8 689.6 24.6 687.3 18.5 686.6 18.1 679.6 15.6 676.4 14.5 672.4 13.9 668.6 13.6 668.6 13.6 655.6 12.6 655.6 12.6 641.2 13.6 632.2 12.8 614.4 21.5" class="b"/></mask><path d="M376.2 242.1C376.9 243.9 379.4 248.7 380.1 250.4 381.2 252.8 385 255.1 386.6 257.2 394.9 268.5 404.1 270.4 421.9 272 421.9 272 439.2 272 439.2 272 447.4 271.5 463 268.9 469.6 267.6 480.9 265.4 483.1 266.1 495.6 261.6 505 258.2 512.9 256 522.7 251.3 544.1 241 566.2 227.8 587.8 211.8 595 206.6 601.8 201.2 608.4 195.7 614.4 190.7 620.2 185.6 625.7 180.5 641.2 165.6 652.8 150.5 659.4 137.3 666.3 123.5 667.6 111.7 662 104.2 658.6 99.7 652.8 97.2 645.4 96.7 678.8 71.6 696.6 43.8 689.6 24.6 687.3 18.5 686.6 18.1 679.6 15.6 676.4 14.5 672.4 13.9 668.6 13.6 668.6 13.6 655.6 12.6 655.6 12.6 641.2 13.6 632.2 12.8 614.4 21.5" mask="url(#_mask_YzFP6iz02640FLNStp5gLYprJTqdIDPE)" vector-effect="non-scaling-stroke" style="fill:none;stroke-width:20;stroke:rgb(255,255,255)"/><path d="M376.2 242.1C376.9 243.9 379.4 248.7 380.1 250.4 381.2 252.8 385 255.1 386.6 257.2 394.9 268.5 404.1 270.4 421.9 272 421.9 272 439.2 272 439.2 272 447.4 271.5 463 268.9 469.6 267.6 480.9 265.4 483.1 266.1 495.6 261.6 505 258.2 512.9 256 522.7 251.3 544.1 241 566.2 227.8 587.8 211.8 595 206.6 601.8 201.2 608.4 195.7 614.4 190.7 620.2 185.6 625.7 180.5 641.2 165.6 652.8 150.5 659.4 137.3 666.3 123.5 667.6 111.7 662 104.2 658.6 99.7 652.8 97.2 645.4 96.7 678.8 71.6 696.6 43.8 689.6 24.6 687.3 18.5 686.6 18.1 679.6 15.6 676.4 14.5 672.4 13.9 668.6 13.6 668.6 13.6 655.6 12.6 655.6 12.6 641.2 13.6 632.2 12.8 614.4 21.5" fill="none"/></g></svg>