<?xml version="1.0" encoding="UTF-8" standalone="no"?><!-- Generator: Gravit.io --><svg xmlns="http://www.w3.org/2000/svg" xmlns:xlink="http://www.w3.org/1999/xlink" style="isolation:isolate" viewBox="0 0 512 512" width="512pt" height="512pt"><defs><clipPath id="_clipPath_2EAfCuldMVhujq7mNwr13PzvxVHj7R9r"><rect width="512" height="512"/></clipPath></defs><g clip-path="url(#_clipPath_2EAfCuldMVhujq7mNwr13PzvxVHj7R9r)"><path d=" M 364.999 518 L 364.999 474.56 L 364.999 408.48 C 348.613 397.086 339.54 377.824 341.189 357.934 C 342.838 338.044 354.96 320.54 372.999 312 L 372.999 362.56 L 396.999 370.56 L 420.999 362.56 L 420.999 312 C 439.037 320.54 451.159 338.044 452.808 357.934 C 454.457 377.824 445.384 397.086 428.999 408.48 L 428.999 502.88 L 428.999 520 C 425.753 518.224 368.667 519.049 364.999 518 Z " fill="rgb(198,197,202)"/><path d=" M 388.999 410.56 L 404.999 410.56 L 404.999 519 L 388.999 519 L 388.999 410.56 Z " fill="rgb(137,136,144)"/><path d=" M 327.88 397.44 C 318.902 382.22 305.109 370.426 288.68 363.92 L 227 339.2 L 219 336 C 219 353.673 204.673 368 187 368 C 169.327 368 155 353.673 155 336 L 85.32 363.92 C 54.922 376.021 34.981 405.442 35 438.16 L 35 512 L 339 512 L 339 438.16 C 339.009 423.835 335.169 409.772 327.88 397.44 L 327.88 397.44 Z " fill="rgb(111,124,205)"/><path d=" M 219 313.28 L 219 336 C 219 353.673 204.673 368 187 368 C 169.327 368 155 353.673 155 336 L 155 313.28 C 175.393 322.24 198.607 322.24 219 313.28 Z " fill="rgb(255,196,119)"/><path d=" M 219 313.28 L 219 329.28 C 198.607 338.24 175.393 338.24 155 329.28 L 155 313.28 C 175.393 322.24 198.607 322.24 219 313.28 Z " fill="rgb(255,182,85)"/><path d=" M 267 194.16 L 267 200 L 259 200 C 248.928 200 239.443 195.258 233.4 187.2 L 219 168 L 192.12 189.52 C 183.629 196.315 173.075 200.011 162.2 200 L 107 200 L 107 184 C 107 139.817 142.817 104 187 104 C 231.183 104 267 139.817 267 184 L 267 194.16 Z " fill="rgb(67,64,83)"/><path d=" M 259 200 C 248.928 200 239.443 195.258 233.4 187.2 L 219 168 L 192.12 189.52 C 183.629 196.315 173.075 200.011 162.2 200 L 107 200 L 107 240 C 107 241.92 107.08 243.84 107.24 245.68 C 109.589 278.97 132.374 307.296 164.387 316.725 C 196.399 326.154 230.901 314.701 250.92 288 C 253.807 284.296 256.3 280.301 258.36 276.08 C 262.824 267.369 265.619 257.899 266.6 248.16 L 266.6 248.08 C 266.68 247.28 266.76 246.48 266.76 245.68 C 266.92 243.84 267 241.92 267 240 L 267 200 L 259 200 Z " fill="rgb(255,196,119)"/><path d=" M 267 424 L 283 424 L 283 512 L 267 512 L 267 424 Z " fill="rgb(42,5,173)"/><path d=" M 91 424 L 107 424 L 107 512 L 91 512 L 91 424 Z " fill="rgb(42,5,173)"/><path d=" M 299 200 L 283 200 L 283 176 C 283 122.981 240.019 80 187 80 C 133.981 80 91 122.981 91 176 L 91 200 L 75 200 L 75 176 C 75 114.144 125.144 64 187 64 C 248.856 64 299 114.144 299 176 L 299 200 Z " fill="rgb(142,152,215)"/><path d=" M 275 296 L 187 296 L 187 280 L 275 280 C 279.418 280 283 276.418 283 272 L 283 240 L 299 240 L 299 272 C 299 285.255 288.255 296 275 296 Z " fill="rgb(111,124,205)"/><path d=" M 139 224 L 155 224 L 155 240 L 139 240 L 139 224 Z " fill="rgb(111,124,205)"/><path d=" M 219 224 L 235 224 L 235 240 L 219 240 L 219 224 Z " fill="rgb(111,124,205)"/><path d=" M 291 192 L 275 192 C 272.19 192.005 269.431 192.75 267 194.16 L 267 240 C 267 241.92 266.92 243.84 266.76 245.68 C 267.24 245.994 267.749 246.262 268.28 246.48 C 270.382 247.472 272.676 247.99 275 248 L 291 248 C 294.832 248.022 298.536 246.626 301.4 244.08 C 304.958 241.077 307.007 236.656 307 232 L 307 208 C 306.974 199.174 299.826 192.026 291 192 L 291 192 Z " fill="rgb(111,124,205)"/><path d=" M 107 240 C 107 241.92 107.08 243.84 107.24 245.68 C 104.772 247.227 101.912 248.032 99 248 L 83 248 C 74.174 247.974 67.026 240.826 67 232 L 67 208 C 67.026 199.174 74.174 192.026 83 192 L 99 192 C 101.81 192.005 104.569 192.75 107 194.16 L 107 240 Z " fill="rgb(111,124,205)"/></g></svg>