<?xml version="1.0" encoding="UTF-8" standalone="no"?><!-- Generator: Gravit.io --><svg xmlns="http://www.w3.org/2000/svg" xmlns:xlink="http://www.w3.org/1999/xlink" style="isolation:isolate" viewBox="0 0 42 27" width="42pt" height="27pt"><defs><clipPath id="_clipPath_8mo22PLHEtVHUhPUgjhxTIv0Q8DWOlAk"><rect width="42" height="27"/></clipPath></defs><g clip-path="url(#_clipPath_8mo22PLHEtVHUhPUgjhxTIv0Q8DWOlAk)"><clipPath id="_clipPath_OpPoIubQzFpDNYcxr1B8tF8Z4lyr35p1"><path d=" M 0 0 L 0 27 L 42 27 L 42 0 L 0 0 Z " fill="rgb(255,255,255)"/></clipPath><g clip-path="url(#_clipPath_OpPoIubQzFpDNYcxr1B8tF8Z4lyr35p1)"><g><path d=" M 0 0 L 0 27 L 42 27 L 42 0 L 0 0 Z " fill="rgb(13,71,161)"/><path d=" M 0 0 L 42 27 M 42 0 L 0 27" fill="rgb(0,0,0)" vector-effect="non-scaling-stroke" stroke-width="4.2" stroke="rgb(255,255,255)" stroke-linejoin="miter" stroke-linecap="butt" stroke-miterlimit="4"/><clipPath id="_clipPath_cTXK2ctppKUKVFojaxfsvYPwoUelnyID"><path d=" M 21 13.5 L 42 13.5 L 42 27 L 21 13.5 Z  L 21 27 L 0 27 Z  L 0 13.5 L 0 0 Z  L 21 0 L 42 0 Z " fill="rgb(255,255,255)"/></clipPath><g clip-path="url(#_clipPath_cTXK2ctppKUKVFojaxfsvYPwoUelnyID)"><path d=" M 0 0 L 42 27 M 42 0 L 0 27" fill="rgb(0,0,0)" vector-effect="non-scaling-stroke" stroke-width="2.8" stroke="rgb(200,16,46)" stroke-linejoin="miter" stroke-linecap="butt" stroke-miterlimit="4"/></g><path d=" M 21 0 L 21 27 M 0 13.5 L 42 13.5" fill="rgb(0,0,0)" vector-effect="non-scaling-stroke" stroke-width="7" stroke="rgb(255,255,255)" stroke-linejoin="miter" stroke-linecap="butt" stroke-miterlimit="4"/><path d=" M 21 0 L 21 27 M 0 13.5 L 42 13.5" fill="rgb(0,0,0)" vector-effect="non-scaling-stroke" stroke-width="4.2" stroke="rgb(183,28,28)" stroke-linejoin="miter" stroke-linecap="butt" stroke-miterlimit="4"/></g></g></g></svg>